<?xml version="1.0" encoding="UTF-8"?>
<svg xmlns="http://www.w3.org/2000/svg" xmlns:xlink="http://www.w3.org/1999/xlink" width="650px" height="917px" viewBox="0 0 650 916" version="1.1">
<g id="surface1">
<path style=" stroke:none;fill-rule:nonzero;fill:rgb(14.901961%,30.196078%,89.411765%);fill-opacity:1;" d="M 649.523438 180.015625 L 590.351562 842.324219 L 324.363281 916 L 59.109375 842.429688 L 0 180.015625 Z M 649.523438 180.015625 "/>
<path style=" stroke:none;fill-rule:nonzero;fill:rgb(16.078431%,39.607843%,94.509804%);fill-opacity:1;" d="M 539.691406 800.152344 L 590.257812 234.175781 L 324.761719 234.175781 L 324.761719 859.6875 Z M 539.691406 800.152344 "/>
<path style=" stroke:none;fill-rule:nonzero;fill:rgb(92.156863%,92.156863%,92.156863%);fill-opacity:1;" d="M 135.511719 479.855469 L 142.796875 561.097656 L 324.761719 561.097656 L 324.761719 479.855469 Z M 135.511719 479.855469 "/>
<path style=" stroke:none;fill-rule:nonzero;fill:rgb(92.156863%,92.156863%,92.156863%);fill-opacity:1;" d="M 324.761719 315.421875 L 120.867188 315.421875 L 128.257812 396.664062 L 324.761719 396.664062 Z M 324.761719 315.421875 "/>
<path style=" stroke:none;fill-rule:nonzero;fill:rgb(92.156863%,92.156863%,92.156863%);fill-opacity:1;" d="M 324.761719 775.378906 L 324.761719 690.851562 L 324.40625 690.945312 L 233.847656 666.515625 L 228.058594 601.722656 L 146.429688 601.722656 L 157.824219 729.28125 L 324.386719 775.480469 Z M 324.761719 775.378906 "/>
<path style=" stroke:none;fill-rule:nonzero;fill:rgb(0%,0%,0%);fill-opacity:1;" d="M 152.859375 0 L 251.347656 0 L 251.347656 41.148438 L 194.046875 41.148438 L 194.046875 82.296875 L 251.347656 82.296875 L 251.347656 123.445312 L 152.859375 123.445312 Z M 152.859375 0 "/>
<path style=" stroke:none;fill-rule:nonzero;fill:rgb(0%,0%,0%);fill-opacity:1;" d="M 271.042969 0 L 369.527344 0 L 369.527344 35.78125 L 312.226562 35.78125 L 312.226562 42.9375 L 369.527344 42.9375 L 369.527344 125.234375 L 271.042969 125.234375 L 271.042969 87.664062 L 328.34375 87.664062 L 328.34375 80.507812 L 271.042969 80.507812 Z M 271.042969 0 "/>
<path style=" stroke:none;fill-rule:nonzero;fill:rgb(0%,0%,0%);fill-opacity:1;" d="M 389.226562 0 L 487.710938 0 L 487.710938 35.78125 L 430.410156 35.78125 L 430.410156 42.9375 L 487.710938 42.9375 L 487.710938 125.234375 L 389.226562 125.234375 L 389.226562 87.664062 L 446.523438 87.664062 L 446.523438 80.507812 L 389.226562 80.507812 Z M 389.226562 0 "/>
<path style=" stroke:none;fill-rule:nonzero;fill:rgb(100%,100%,100%);fill-opacity:1;" d="M 424.609375 561.097656 L 415.171875 666.464844 L 324.480469 690.917969 L 324.480469 775.441406 L 491.179688 729.28125 L 492.402344 715.558594 L 511.507812 501.671875 L 513.492188 479.855469 L 528.171875 315.421875 L 324.480469 315.421875 L 324.480469 396.664062 L 439.058594 396.664062 L 431.660156 479.855469 L 324.480469 479.855469 L 324.480469 561.097656 Z M 424.609375 561.097656 "/>
</g>
</svg>
