<?xml version="1.0" encoding="UTF-8"?>
<svg xmlns="http://www.w3.org/2000/svg" xmlns:xlink="http://www.w3.org/1999/xlink" width="650px" height="917px" viewBox="0 0 650 917" version="1.1">
<g id="surface1">
<path style=" stroke:none;fill-rule:nonzero;fill:rgb(89.411765%,30.196078%,14.901961%);fill-opacity:1;" d="M 136.65625 843.347656 L 94.75 180.210938 L 555.25 180.210938 L 513.296875 843.246094 L 324.71875 917 Z M 136.65625 843.347656 "/>
<path style=" stroke:none;fill-rule:nonzero;fill:rgb(94.509804%,39.607843%,16.078431%);fill-opacity:1;" d="M 325 860.625 L 477.382812 801.023438 L 513.234375 234.433594 L 325 234.433594 Z M 325 860.625 "/>
<path style=" stroke:none;fill-rule:nonzero;fill:rgb(92.156863%,92.156863%,92.156863%);fill-opacity:1;" d="M 325 480.378906 L 248.714844 480.378906 L 243.445312 397.097656 L 325 397.097656 L 325 315.765625 L 180.441406 315.765625 L 181.820312 337.585938 L 195.992188 561.710938 L 325 561.710938 Z M 325 691.605469 L 324.746094 691.699219 L 260.542969 667.242188 L 256.4375 602.378906 L 198.566406 602.378906 L 206.644531 730.078125 L 324.734375 776.328125 L 325 776.222656 Z M 325 691.605469 "/>
<path style=" stroke:none;fill-rule:nonzero;fill:rgb(0%,0%,0%);fill-opacity:1;" d="M 137.59375 0 L 166.890625 0 L 166.890625 40.835938 L 193.691406 40.835938 L 193.691406 0 L 222.988281 0 L 222.988281 123.660156 L 193.691406 123.660156 L 193.691406 82.25 L 166.890625 82.25 L 166.890625 123.660156 L 137.59375 123.660156 Z M 261.515625 41.007812 L 235.722656 41.007812 L 235.722656 0 L 316.617188 0 L 316.617188 41.007812 L 290.816406 41.007812 L 290.816406 123.660156 L 261.515625 123.660156 Z M 329.457031 0 L 360.007812 0 L 378.796875 43.449219 L 397.570312 0 L 428.128906 0 L 428.128906 123.660156 L 398.953125 123.660156 L 398.953125 62.367188 L 378.796875 106.335938 L 378.292969 106.335938 L 358.125 62.367188 L 358.125 123.660156 L 329.457031 123.660156 Z M 442.710938 0 L 472.015625 0 L 472.015625 82.785156 L 513.21875 82.785156 L 513.21875 123.660156 L 442.710938 123.660156 Z M 442.710938 0 "/>
<path style=" stroke:none;fill-rule:nonzero;fill:rgb(100%,100%,100%);fill-opacity:1;" d="M 324.800781 480.378906 L 324.800781 561.710938 L 395.789062 561.710938 L 389.097656 667.191406 L 324.800781 691.675781 L 324.800781 776.289062 L 442.988281 730.078125 L 443.851562 716.339844 L 457.402344 502.21875 L 458.808594 480.378906 Z M 324.800781 315.765625 L 324.800781 397.097656 L 464.054688 397.097656 L 465.210938 378.816406 L 467.835938 337.585938 L 469.214844 315.765625 Z M 324.800781 315.765625 "/>
</g>
</svg>
